<svg id="Capa_1" data-name="Capa 1" xmlns="http://www.w3.org/2000/svg" xmlns:xlink="http://www.w3.org/1999/xlink" viewBox="0 0 958.32 980.27"><defs><style>.cls-1{fill:#d0d2d1;}.cls-2{fill:#5e5760;}.cls-3{fill:#575756;}.cls-4{fill:url(#linear-gradient);}.cls-5{fill:url(#linear-gradient-2);}.cls-6{fill:url(#linear-gradient-3);}.cls-7{fill:url(#linear-gradient-4);}.cls-8{fill:url(#linear-gradient-5);}.cls-9{fill:url(#linear-gradient-6);}.cls-10{fill:url(#linear-gradient-7);}.cls-11{fill:url(#linear-gradient-8);}.cls-12{fill:url(#linear-gradient-9);}.cls-13{fill:url(#linear-gradient-10);}.cls-14{fill:url(#linear-gradient-11);}.cls-15{fill:url(#linear-gradient-12);}.cls-16{fill:url(#linear-gradient-13);}.cls-17{fill:url(#linear-gradient-14);}.cls-18{fill:url(#linear-gradient-15);}.cls-19{fill:url(#linear-gradient-16);}.cls-20{fill:url(#linear-gradient-17);}.cls-21{fill:#24f49f;}.cls-22{fill:#d00000;}.cls-22,.cls-24,.cls-25,.cls-26,.cls-27,.cls-29{stroke:#000;}.cls-22,.cls-27{stroke-width:0.83px;}.cls-22,.cls-23,.cls-24,.cls-25,.cls-26,.cls-28,.cls-29,.cls-30,.cls-31{fill-rule:evenodd;}.cls-23{fill:#0e0000;opacity:0.1;}.cls-23,.cls-24,.cls-25,.cls-28,.cls-30{isolation:isolate;}.cls-24{stroke-width:0.83px;opacity:0.27;}.cls-25,.cls-26{stroke-width:0.6px;}.cls-25{opacity:0.29;}.cls-26,.cls-29{fill:#fff;}.cls-27{fill:none;}.cls-28{opacity:0.11;}.cls-29{stroke-width:0.81px;}.cls-30{opacity:0.1;}.cls-31{fill-opacity:0.22;}</style><linearGradient id="linear-gradient" x1="280.54" y1="1178.19" x2="303.68" y2="422.22" gradientUnits="userSpaceOnUse"><stop offset="0"/><stop offset="1" stop-opacity="0"/></linearGradient><linearGradient id="linear-gradient-2" x1="831.65" y1="748.57" x2="943.89" y2="748.57" xlink:href="#linear-gradient"/><linearGradient id="linear-gradient-3" x1="222.76" y1="1176.42" x2="245.9" y2="420.45" xlink:href="#linear-gradient"/><linearGradient id="linear-gradient-4" x1="817.34" y1="781.34" x2="839.88" y2="781.34" xlink:href="#linear-gradient"/><linearGradient id="linear-gradient-5" x1="325.35" y1="816.64" x2="824.73" y2="816.64" xlink:href="#linear-gradient"/><linearGradient id="linear-gradient-6" x1="553.72" y1="1186.55" x2="576.86" y2="430.58" xlink:href="#linear-gradient"/><linearGradient id="linear-gradient-7" x1="725.91" y1="1191.82" x2="749.05" y2="435.85" xlink:href="#linear-gradient"/><linearGradient id="linear-gradient-8" x1="575" y1="737.78" x2="575" y2="703.56" xlink:href="#linear-gradient"/><linearGradient id="linear-gradient-9" x1="384.36" y1="1181.36" x2="407.5" y2="425.39" xlink:href="#linear-gradient"/><linearGradient id="linear-gradient-10" x1="886.44" y1="1196.73" x2="909.58" y2="440.76" xlink:href="#linear-gradient"/><linearGradient id="linear-gradient-11" x1="310.12" y1="781.34" x2="332.66" y2="781.34" xlink:href="#linear-gradient"/><linearGradient id="linear-gradient-12" x1="206.1" y1="748.68" x2="318.35" y2="748.68" xlink:href="#linear-gradient"/><linearGradient id="linear-gradient-13" x1="850.01" y1="1195.62" x2="873.16" y2="439.65" xlink:href="#linear-gradient"/><linearGradient id="linear-gradient-14" x1="561.64" y1="1186.79" x2="584.78" y2="430.82" xlink:href="#linear-gradient"/><linearGradient id="linear-gradient-15" x1="253.86" y1="818.14" x2="253.86" y2="643.59" xlink:href="#linear-gradient"/><linearGradient id="linear-gradient-16" x1="896.14" y1="818.14" x2="896.14" y2="643.59" xlink:href="#linear-gradient"/><linearGradient id="linear-gradient-17" x1="326.13" y1="774.39" x2="824.1" y2="774.39" xlink:href="#linear-gradient"/></defs><path class="cls-1" d="M293,750.3c-49.6.62-80.8,4.16-89.69,5.34a10.85,10.85,0,0,1-1.41.16l.47,2.12c1,4.79,2.12,9.51,3.15,14.07l1.17,5c1.89,7.86,3.93,15.49,6,22.8A395.74,395.74,0,0,0,378,986.74c-23.42-33.8-42.68-73.57-57.69-118.93C308.61,832.05,299.49,792.74,293,750.3Zm561.87-2.36h2.52c44.8.63,74.67,3.53,86.54,4.95l-4.63-2.75c-2.68-.39-29.24-4-81.44-5.43-.86,0-1.73,0-2.51-.07-7.39-.16-15.25-.32-23.66-.4l9.74,3.54C846,747.86,850.51,747.86,854.83,747.94ZM198.24,733.63a5.43,5.43,0,0,0,1.1-.08c8.26-.39,40.41-1.81,90.79-3.38q-6-46.09-7.94-96.84c-4.56-120.66,9.83-227.56,16-266.63A393.09,393.09,0,0,0,189.44,567.07a504.62,504.62,0,0,0,7.78,162C197.54,730.57,197.85,732.06,198.24,733.63Zm619.1,79.24,12.34,5.18,10.22-68.23-14.15-5.18Zm-241.16,1.88h-242l-8.8,3.77H824.73l-9-3.77Zm-2.36-88.82h2.36c18.39,0,36.24.08,53.69.15V256.42a396,396,0,0,0-109.74.08V726.16C537.58,726,555.43,725.93,573.82,725.93Z" transform="translate(-12.53 -61.73)"/><path class="cls-2" d="M865.37,633.25c4.71-123.88-10.69-233.3-16.51-269.38a403.86,403.86,0,0,0-31.6-27.59c-3.93-3.06-7.94-6.13-12-9a394.81,394.81,0,0,0-98.17-51.8c-4.72-1.65-9.44-3.3-14.15-4.79a390.23,390.23,0,0,0-60.76-13.92V726.08c91.73.56,169.31,2.28,225.12,4,4.48-33.56,7-66.34,8.1-96.84Z" transform="translate(-12.53 -61.73)"/><path class="cls-1" d="M293,732.53c-.86,0-1.65.08-2.51.08-48.74,1.49-80.49,2.91-90.08,3.3l8.8,7.31c3.46-.47,24-2.91,82.06-5.19.87,0,1.65-.08,2.52-.08,47.16-1.8,118.38-3.45,224-3.93h2.36q25.47-.1,53.69-.07h2.36c18.78,0,36.71,0,53.69.07h2.35c105.65.48,176.87,2.13,224,3.93.86,0,1.73.08,2.51.08,58,2.28,78.61,4.72,82.07,5.19l8.8-7.31c-9.59-.47-41.34-1.89-90.08-3.3-.79,0-1.65-.08-2.51-.08-55.81-1.65-133.24-3.46-224.82-4h-2.35q-26.07-.12-53.69-.16h-2.36c-18.39,0-36.24.08-53.69.16h-2.36c-91.57.55-169,2.28-224.81,4Z" transform="translate(-12.53 -61.73)"/><path class="cls-2" d="M284.63,633.33c1.18,30.5,3.62,63.2,8,96.84,55.81-1.65,133.39-3.46,225.12-4V256.81A390.21,390.21,0,0,0,457,270.72c-4.79,1.5-9.43,3.07-14.15,4.8a391.93,391.93,0,0,0-98.17,51.72c-4.09,2.91-8.1,6-12,9a403.86,403.86,0,0,0-31.6,27.59c-5.82,36.16-21.15,145.5-16.43,269.46Z" transform="translate(-12.53 -61.73)"/><path class="cls-1" d="M851.77,366.7c6.13,39.15,20.59,146.05,16,266.63q-1.87,50.7-7.93,96.84c50.38,1.57,82.53,3,90.78,3.38a4.7,4.7,0,0,1,1.1.08c.32-1.57.63-3.06,1-4.64a504.54,504.54,0,0,0,7.78-162A393.17,393.17,0,0,0,851.77,366.7ZM310.1,749.82l10.3,68.23,12.26-5.18-8.41-68.23Zm-17.92-5c-52.28,1.42-78.77,5-81.44,5.43L206.1,753c11.87-1.42,41.74-4.33,86.55-5h2.51c4.33-.08,8.81-.08,13.45-.08l9.74-3.54c-8.41.08-16.27.24-23.66.39a13.15,13.15,0,0,0-2.51,0Zm655.88,11c-.39-.08-.86-.08-1.41-.16-8.89-1.18-40.17-4.64-89.69-5.34-6.45,42.44-15.65,81.74-27.44,117.51Q807,936,771.83,986.74a395.74,395.74,0,0,0,165.38-187c2-7.31,4.09-14.94,6-22.8l1.18-5c1.1-4.64,2.12-9.27,3.14-14.07a20.66,20.66,0,0,0,.55-2.12Z" transform="translate(-12.53 -61.73)"/><path class="cls-2" d="M842.26,750.22,831.65,821H318.35l-10.61-70.74c-4.17,0-8.25,0-12.18.08,13,83.47,38.75,170.41,87.64,239.35a392.39,392.39,0,0,0,383.6,0c48.89-68.94,74.67-155.8,87.64-239.35-3.93-.08-8-.08-12.18-.08Z" transform="translate(-12.53 -61.73)"/><path class="cls-3" d="M632.22,736.46h-2.35c-17.38-.08-35.61-.08-54.87-.08s-37.5,0-54.87.08h-2.36c-83.87.39-146,1.49-191.64,2.83l.24,2.52,8.73,70.58h480l8.73-70.58.31-2.52c-45.75-1.34-107.93-2.51-191.88-2.83Z" transform="translate(-12.53 -61.73)"/><path class="cls-1" d="M326.06,739.29a11.4,11.4,0,0,0-1.65.08c-11.09.31-21.15.71-30.35,1-.86,0-1.65.08-2.51.08-63.67,2.52-82.22,5.19-82.54,5.27l-.55.07-11.63-9.66-.63-.55-.08-.4c0-.15-.08-.31-.08-.47-.31-1.33-.63-2.75-.86-4.09-.24-1-.4-2-.63-3a504.49,504.49,0,0,1-10-130.88,395.27,395.27,0,0,0,20.67,184.09c-.32-1.25-.63-2.59-.94-3.93-1.73-7-3.31-14.15-4.88-21.54,0-.15-.08-.23-.08-.39l-.15-.86.94-.55,10-5.82c.32-.08,26.81-3.93,81.67-5.42.87,0,1.65,0,2.52-.08,9.35-.24,19.57-.4,30.5-.47h1.41l-.15-2.52Zm624.52,16.19C949,762.87,947.35,770,945.7,777c-.31,1.34-.63,2.6-.94,3.93a395.27,395.27,0,0,0,20.67-184.09,510.33,510.33,0,0,1-9.9,130.8c-.24,1-.4,2-.63,3-.32,1.34-.55,2.68-.87,4.09,0,.16-.07.32-.07.47l-.08.4-.63.55-11.64,9.66-.55-.07c-.31-.08-18.86-2.75-82.53-5.27-.87,0-1.65-.08-2.52-.08-9.11-.31-19.18-.71-30.18-1a12.53,12.53,0,0,1-1.73-.08l-.31,2.52h1.49q16.38.11,30.42.47c.86,0,1.73,0,2.51.08,54.87,1.49,81.36,5.42,81.75,5.42l.4.16L950,753.6l.94.55-.16.86c-.08.16-.08.32-.15.47Z" transform="translate(-12.53 -61.73)"/><path d="M962.84,566.59c-1.73-8.33-3.7-16.5-5.9-24.68a396.21,396.21,0,0,0-105.8-179.14c-.94-.94-1.89-1.89-2.91-2.83-6.44-6.21-13.2-12.18-20-17.92-3.15-2.6-6.37-5.19-9.59-7.78a395,395,0,0,0-124.67-65.72Q688,266.65,682.14,265a402.42,402.42,0,0,0-49.92-10.62c-.78-.15-1.57-.23-2.35-.31a392.93,392.93,0,0,0-109.74,0c-.78.08-1.57.24-2.36.31A405.78,405.78,0,0,0,467.86,265q-5.89,1.65-11.79,3.53a396.48,396.48,0,0,0-124.75,65.8c-3.22,2.51-6.44,5.1-9.59,7.78q-10.37,8.61-20,17.92c-.95.94-1.89,1.89-2.91,2.83A396.09,396.09,0,0,0,193.06,541.91c-2.21,8.1-4.25,16.35-5.9,24.68a396.81,396.81,0,0,0,23.35,234c2.28,5.35,4.71,10.69,7.23,15.88A398.53,398.53,0,0,0,381.39,991.3c1.65.94,3.38,1.89,5,2.83a395.36,395.36,0,0,0,377.15,0c1.73-.94,3.38-1.89,5-2.83A398.73,398.73,0,0,0,932.26,816.56c2.52-5.27,5-10.53,7.23-16a393.53,393.53,0,0,0,31.37-154.46,385.69,385.69,0,0,0-8-79.55Zm-2.28.4a504.54,504.54,0,0,1-7.78,162c-.32,1.58-.63,3.07-1,4.64a5.53,5.53,0,0,1-1.1-.08c-8.25-.39-40.4-1.81-90.78-3.38q6-46.09,7.93-96.84c4.56-120.66-9.82-227.56-16-266.63A393.17,393.17,0,0,1,960.56,567ZM632.22,256.81A390.6,390.6,0,0,1,693,270.72c4.71,1.5,9.43,3.07,14.14,4.8a391.82,391.82,0,0,1,98.18,51.72c4.09,2.91,8.1,6,12,9a405.7,405.7,0,0,1,31.6,27.59c5.82,36.08,21.14,145.5,16.51,269.38-1.18,30.5-3.62,63.28-8,96.84-55.81-1.65-133.4-3.45-225.13-4l-.08-469.27Zm-112.09-.39a392.93,392.93,0,0,1,109.74,0V726.08c-17.38-.07-35.3-.15-53.69-.15h-2.36c-18.39,0-36.24.08-53.69.15V256.42Zm0,472.1c17.37-.08,35.3-.16,53.69-.16h2.36c18.39,0,36.24.08,53.69.16h2.35c91.58.55,169,2.28,224.82,4,.86,0,1.65.08,2.51.08,48.74,1.49,80.49,2.91,90.08,3.3l-8.8,7.31c-3.46-.47-24-2.91-82.07-5.19-.78,0-1.65-.08-2.51-.08-47.16-1.8-118.38-3.45-224-3.93h-2.35c-17-.07-34.83-.07-53.69-.07h-2.36c-18.79,0-36.63,0-53.69.07h-2.36c-105.64.48-176.86,2.13-224,3.93-.87,0-1.65.08-2.52.08-58,2.28-78.6,4.72-82.06,5.19l-8.8-7.31c9.59-.47,41.34-1.89,90.08-3.3.86,0,1.65-.08,2.51-.08,55.81-1.65,133.16-3.46,224.81-4Zm319.77,21.3-10.22,68.23-12.34-5.18,8.41-68.16Zm-8.25-5.5c8.41.08,16.27.24,23.66.39.86,0,1.73,0,2.51.08,52.27,1.42,78.76,5,81.44,5.43l4.63,2.75c-11.87-1.42-41.74-4.33-86.54-5h-2.52c-4.32-.08-8.8-.08-13.36-.08l-9.82-3.62Zm-507.4.32,8.41,68.15L320.4,818l-10.22-68.22,14.07-5.11Zm-15.64,3.22c-4.64,0-9,0-13.45.08h-2.51c-44.81.63-74.68,3.53-86.55,4.95l4.64-2.75c2.67-.39,29.24-4,81.44-5.43.86,0,1.65,0,2.51-.07,7.39-.16,15.25-.32,23.66-.4l-9.74,3.62Zm514.94-4.64L815,812.39H335l-8.65-69.8-.24-3.3c45.6-1.34,107.77-2.51,191.57-2.83h2.35c17.38-.08,35.61-.08,54.87-.08s37.5,0,54.87.08h2.36c83.79.39,145.89,1.49,191.48,2.83Zm-489.4,71.53H815.69l8.88,3.77H325.35l8.8-3.77ZM301.06,363.87a403.86,403.86,0,0,1,31.6-27.59c3.93-3.06,7.94-6.13,12-9a394.81,394.81,0,0,1,98.17-51.8c4.72-1.65,9.44-3.3,14.15-4.79a390.23,390.23,0,0,1,60.76-13.92V726.08c-91.73.56-169.31,2.28-225.12,4-4.4-33.56-6.92-66.34-8-96.84C279.91,509.37,295.24,400,301.06,363.87ZM189.44,567.07A393.15,393.15,0,0,1,298.23,366.7c-6.13,39.15-20.6,146.05-16,266.63q1.89,50.7,7.94,96.84c-50.38,1.57-82.53,3-90.79,3.38a4.78,4.78,0,0,0-1.1.08c-.31-1.57-.63-3.06-1-4.64A504.13,504.13,0,0,1,189.44,567.07Zm-7.94,79.07a393.24,393.24,0,0,1,3.07-49.36,507.58,507.58,0,0,0,9.9,130.88c.24,1,.39,2,.63,3,.31,1.34.55,2.68.86,4.09,0,.16.08.32.08.47l.08.4.63.55,11.63,9.66.55-.07c.32-.08,18.87-2.75,82.54-5.27.86,0,1.65-.08,2.51-.08,9-.31,18.87-.71,29.72-1l.15,2.51c-10.61.08-20.51.24-29.63.48-.86,0-1.73,0-2.51.07-54.87,1.5-81.44,5.43-81.68,5.43l-10,5.82-.94.55.16.86c0,.16.07.24.07.39,1.58,7.39,3.23,14.55,4.88,21.54.31,1.34.63,2.6.94,3.93A393.3,393.3,0,0,1,181.5,646.14Zm31.21,153.68c-2.05-7.31-4.09-14.86-6-22.8l-1.18-4.95c-1.1-4.64-2.12-9.28-3.14-14.07l-.47-2.12c.39-.08.86-.08,1.41-.16,8.89-1.18,40.17-4.64,89.69-5.35,6.45,42.45,15.64,81.75,27.43,117.52Q343,936,378.17,986.82A396.32,396.32,0,0,1,212.71,799.82ZM766.8,989.65a392.39,392.39,0,0,1-383.6,0c-48.81-68.94-74.67-155.8-87.56-239.35,3.93,0,8-.08,12.18-.08L318.43,821H831.72l10.62-70.74c4.16,0,8.25,0,12.18.08C841.47,833.77,815.69,920.71,766.8,989.65ZM943.27,777c-1.89,7.86-3.93,15.49-6,22.8a395.79,395.79,0,0,1-165.38,187c23.42-33.8,42.68-73.58,57.69-118.93,11.79-35.77,21-75.07,27.44-117.52,49.52.63,80.8,4.17,89.68,5.35a11,11,0,0,0,1.42.16l-.47,2.12c-1,4.79-2.12,9.51-3.15,14.07-.47,1.65-.86,3.3-1.25,4.95Zm2.43,0c1.73-7,3.3-14.15,4.88-21.54,0-.15.07-.23.07-.39l.16-.86-.94-.55L940.28,748l-.39-.16c-.32-.08-26.81-3.93-81.75-5.43-.79,0-1.73,0-2.52-.07-9.12-.24-19-.4-29.63-.48l.15-2.51c10.85.31,20.76.63,29.79,1,.87,0,1.66.08,2.52.08,63.67,2.52,82.22,5.19,82.54,5.27l.55.07,11.63-9.66.63-.55.08-.4c0-.15.08-.31.08-.47.31-1.33.62-2.75.86-4.09.24-1,.39-2,.63-3a507.58,507.58,0,0,0,9.9-130.88,395.27,395.27,0,0,1-20.67,184.09c.39-1.25.71-2.59,1-3.85Z" transform="translate(-12.53 -61.73)"/><path class="cls-4" d="M293,750.3c-49.6.62-80.8,4.16-89.69,5.34a10.85,10.85,0,0,1-1.41.16l.47,2.12c1,4.79,2.12,9.51,3.15,14.07l1.17,5c1.89,7.86,3.93,15.49,6,22.8A395.74,395.74,0,0,0,378,986.74c-23.42-33.8-42.68-73.57-57.69-118.93C308.61,832.05,299.49,792.74,293,750.3Z" transform="translate(-12.53 -61.73)"/><path class="cls-5" d="M854.83,747.94h2.52c44.8.63,74.67,3.53,86.54,4.95l-4.63-2.75c-2.68-.39-29.24-4-81.44-5.43-.86,0-1.73,0-2.51-.07-7.39-.16-15.25-.32-23.66-.4l9.74,3.54C846,747.86,850.51,747.86,854.83,747.94Z" transform="translate(-12.53 -61.73)"/><path class="cls-6" d="M198.24,733.63a5.43,5.43,0,0,0,1.1-.08c8.26-.39,40.41-1.81,90.79-3.38q-6-46.09-7.94-96.84c-4.56-120.66,9.83-227.56,16-266.63A393.09,393.09,0,0,0,189.44,567.07a504.62,504.62,0,0,0,7.78,162C197.54,730.57,197.85,732.06,198.24,733.63Z" transform="translate(-12.53 -61.73)"/><path class="cls-7" d="M817.34,812.87l12.34,5.18,10.22-68.23-14.15-5.18Z" transform="translate(-12.53 -61.73)"/><path class="cls-8" d="M576.18,814.75h-242l-8.8,3.77H824.73l-9-3.77Z" transform="translate(-12.53 -61.73)"/><path class="cls-9" d="M573.82,725.93h2.36c18.39,0,36.24.08,53.69.15V256.42a396,396,0,0,0-109.74.08V726.16C537.58,726,555.43,725.93,573.82,725.93Z" transform="translate(-12.53 -61.73)"/><path class="cls-10" d="M865.37,633.25c4.71-123.88-10.69-233.3-16.51-269.38a403.86,403.86,0,0,0-31.6-27.59c-3.93-3.06-7.94-6.13-12-9a394.81,394.81,0,0,0-98.17-51.8c-4.72-1.65-9.44-3.3-14.15-4.79a390.23,390.23,0,0,0-60.76-13.92V726.08c91.73.56,169.31,2.28,225.12,4,4.48-33.56,7-66.34,8.1-96.84Z" transform="translate(-12.53 -61.73)"/><path class="cls-11" d="M293,732.53c-.86,0-1.65.08-2.51.08-48.74,1.49-80.49,2.91-90.08,3.3l8.8,7.31c3.46-.47,24-2.91,82.06-5.19.87,0,1.65-.08,2.52-.08,47.16-1.8,118.38-3.45,224-3.93h2.36q25.47-.1,53.69-.07h2.36c18.78,0,36.71,0,53.69.07h2.35c105.65.48,176.87,2.13,224,3.93.86,0,1.73.08,2.51.08,58,2.28,78.61,4.72,82.07,5.19l8.8-7.31c-9.59-.47-41.34-1.89-90.08-3.3-.79,0-1.65-.08-2.51-.08-55.81-1.65-133.24-3.46-224.82-4h-2.35q-26.07-.12-53.69-.16h-2.36c-18.39,0-36.24.08-53.69.16h-2.36c-91.57.55-169,2.28-224.81,4Z" transform="translate(-12.53 -61.73)"/><path class="cls-12" d="M284.63,633.33c1.18,30.5,3.62,63.2,8,96.84,55.81-1.65,133.39-3.46,225.12-4V256.81A390.21,390.21,0,0,0,457,270.72c-4.79,1.5-9.43,3.07-14.15,4.8a391.93,391.93,0,0,0-98.17,51.72c-4.09,2.91-8.1,6-12,9a403.86,403.86,0,0,0-31.6,27.59c-5.82,36.16-21.15,145.5-16.43,269.46Z" transform="translate(-12.53 -61.73)"/><path class="cls-13" d="M851.77,366.7c6.13,39.15,20.59,146.05,16,266.63q-1.87,50.7-7.93,96.84c50.38,1.57,82.53,3,90.78,3.38a4.7,4.7,0,0,1,1.1.08c.32-1.57.63-3.06,1-4.64a504.54,504.54,0,0,0,7.78-162A393.17,393.17,0,0,0,851.77,366.7Z" transform="translate(-12.53 -61.73)"/><path class="cls-14" d="M310.1,749.82l10.3,68.23,12.26-5.18-8.41-68.23Z" transform="translate(-12.53 -61.73)"/><path class="cls-15" d="M292.18,744.79c-52.28,1.42-78.77,5-81.44,5.43L206.1,753c11.87-1.42,41.74-4.33,86.55-5h2.51c4.33-.08,8.81-.08,13.45-.08l9.74-3.54c-8.41.08-16.27.24-23.66.39a13.15,13.15,0,0,0-2.51,0Z" transform="translate(-12.53 -61.73)"/><path class="cls-16" d="M948.06,755.8c-.39-.08-.86-.08-1.41-.16-8.89-1.18-40.17-4.64-89.69-5.34-6.45,42.44-15.65,81.74-27.44,117.51Q807,936,771.83,986.74a395.74,395.74,0,0,0,165.38-187c2-7.31,4.09-14.94,6-22.8l1.18-5c1.1-4.64,2.12-9.27,3.14-14.07a20.66,20.66,0,0,0,.55-2.12Z" transform="translate(-12.53 -61.73)"/><path class="cls-17" d="M842.26,750.22,831.65,821H318.35l-10.61-70.74c-4.17,0-8.25,0-12.18.08,13,83.47,38.75,170.41,87.64,239.35a392.39,392.39,0,0,0,383.6,0c48.89-68.94,74.67-155.8,87.64-239.35-3.93-.08-8-.08-12.18-.08Z" transform="translate(-12.53 -61.73)"/><path class="cls-18" d="M326.06,739.29a11.4,11.4,0,0,0-1.65.08c-11.09.31-21.15.71-30.35,1-.86,0-1.65.08-2.51.08-63.67,2.52-82.22,5.19-82.54,5.27l-.55.07-11.63-9.66-.63-.55-.08-.4c0-.15-.08-.31-.08-.47-.31-1.33-.63-2.75-.86-4.09-.24-1-.4-2-.63-3a504.49,504.49,0,0,1-10-130.88,395.27,395.27,0,0,0,20.67,184.09c-.32-1.25-.63-2.59-.94-3.93-1.73-7-3.31-14.15-4.88-21.54,0-.15-.08-.23-.08-.39l-.15-.86.94-.55,10-5.82c.32-.08,26.81-3.93,81.67-5.42.87,0,1.65,0,2.52-.08,9.35-.24,19.57-.4,30.5-.47h1.41l-.15-2.52Z" transform="translate(-12.53 -61.73)"/><path class="cls-19" d="M950.58,755.48C949,762.87,947.35,770,945.7,777c-.31,1.34-.63,2.6-.94,3.93a395.27,395.27,0,0,0,20.67-184.09,510.33,510.33,0,0,1-9.9,130.8c-.24,1-.4,2-.63,3-.32,1.34-.55,2.68-.87,4.09,0,.16-.07.32-.07.47l-.08.4-.63.55-11.64,9.66-.55-.07c-.31-.08-18.86-2.75-82.53-5.27-.87,0-1.65-.08-2.52-.08-9.11-.31-19.18-.71-30.18-1a12.53,12.53,0,0,1-1.73-.08l-.31,2.52h1.49q16.38.11,30.42.47c.86,0,1.73,0,2.51.08,54.87,1.49,81.36,5.42,81.75,5.42l.4.16L950,753.6l.94.55-.16.86c-.08.16-.08.32-.15.47Z" transform="translate(-12.53 -61.73)"/><path d="M962.84,566.59c-1.73-8.33-3.7-16.5-5.9-24.68a396.21,396.21,0,0,0-105.8-179.14c-.94-.94-1.89-1.89-2.91-2.83-6.44-6.21-13.2-12.18-20-17.92-3.15-2.6-6.37-5.19-9.59-7.78a395,395,0,0,0-124.67-65.72Q688,266.65,682.14,265a402.42,402.42,0,0,0-49.92-10.62c-.78-.15-1.57-.23-2.35-.31a392.93,392.93,0,0,0-109.74,0c-.78.08-1.57.24-2.36.31A405.78,405.78,0,0,0,467.86,265q-5.89,1.65-11.79,3.53a396.48,396.48,0,0,0-124.75,65.8c-3.22,2.51-6.44,5.1-9.59,7.78q-10.37,8.61-20,17.92c-.95.94-1.89,1.89-2.91,2.83A396.09,396.09,0,0,0,193.06,541.91c-2.21,8.1-4.25,16.35-5.9,24.68a396.81,396.81,0,0,0,23.35,234c2.28,5.35,4.71,10.69,7.23,15.88A398.53,398.53,0,0,0,381.39,991.3c1.65.94,3.38,1.89,5,2.83a395.36,395.36,0,0,0,377.15,0c1.73-.94,3.38-1.89,5-2.83A398.73,398.73,0,0,0,932.26,816.56c2.52-5.27,5-10.53,7.23-16a393.53,393.53,0,0,0,31.37-154.46,385.69,385.69,0,0,0-8-79.55Zm-2.28.4a504.54,504.54,0,0,1-7.78,162c-.32,1.58-.63,3.07-1,4.64a5.53,5.53,0,0,1-1.1-.08c-8.25-.39-40.4-1.81-90.78-3.38q6-46.09,7.93-96.84c4.56-120.66-9.82-227.56-16-266.63A393.17,393.17,0,0,1,960.56,567ZM632.22,256.81A390.6,390.6,0,0,1,693,270.72c4.71,1.5,9.43,3.07,14.14,4.8a391.82,391.82,0,0,1,98.18,51.72c4.09,2.91,8.1,6,12,9a405.7,405.7,0,0,1,31.6,27.59c5.82,36.08,21.14,145.5,16.51,269.38-1.18,30.5-3.62,63.28-8,96.84-55.81-1.65-133.4-3.45-225.13-4l-.08-469.27Zm-112.09-.39a392.93,392.93,0,0,1,109.74,0V726.08c-17.38-.07-35.3-.15-53.69-.15h-2.36c-18.39,0-36.24.08-53.69.15V256.42Zm0,472.1c17.37-.08,35.3-.16,53.69-.16h2.36c18.39,0,36.24.08,53.69.16h2.35c91.58.55,169,2.28,224.82,4,.86,0,1.65.08,2.51.08,48.74,1.49,80.49,2.91,90.08,3.3l-8.8,7.31c-3.46-.47-24-2.91-82.07-5.19-.78,0-1.65-.08-2.51-.08-47.16-1.8-118.38-3.45-224-3.93h-2.35c-17-.07-34.83-.07-53.69-.07h-2.36c-18.79,0-36.63,0-53.69.07h-2.36c-105.64.48-176.86,2.13-224,3.93-.87,0-1.65.08-2.52.08-58,2.28-78.6,4.72-82.06,5.19l-8.8-7.31c9.59-.47,41.34-1.89,90.08-3.3.86,0,1.65-.08,2.51-.08,55.81-1.65,133.16-3.46,224.81-4Zm319.77,21.3-10.22,68.23-12.34-5.18,8.41-68.16Zm-8.25-5.5c8.41.08,16.27.24,23.66.39.86,0,1.73,0,2.51.08,52.27,1.42,78.76,5,81.44,5.43l8.8,4.32A812.22,812.22,0,0,0,857.35,748h-2.52c-4.32-.08-8.8-.08-13.36-.08l-9.82-3.62Zm-507.4.32,8.41,68.15L320.4,818l-10.22-68.22,14.07-5.11Zm-15.64,3.22c-4.64,0-9,0-13.45.08h-2.51c-44.81.63-74.68,3.53-86.55,4.95l4.64-2.75c2.67-.39,29.24-4,81.44-5.43.86,0,1.65,0,2.51-.07,7.39-.16,15.25-.32,23.66-.4l-9.74,3.62Zm514.94-4.64L815,812.39H335l-8.65-69.8-.24-3.3c45.6-1.34,107.77-2.51,191.57-2.83h2.35c17.38-.08,35.61-.08,54.87-.08s37.5,0,54.87.08h2.36c83.79.39,145.89,1.49,191.48,2.83Zm-489.4,71.53H815.69l8.88,3.77H325.35l8.8-3.77ZM301.06,363.87a403.86,403.86,0,0,1,31.6-27.59c3.93-3.06,7.94-6.13,12-9a394.81,394.81,0,0,1,98.17-51.8c4.72-1.65,9.44-3.3,14.15-4.79a390.23,390.23,0,0,1,60.76-13.92V726.08c-91.73.56-169.31,2.28-225.12,4-4.4-33.56-6.92-66.34-8-96.84C279.91,509.37,295.24,400,301.06,363.87ZM189.44,567.07A393.15,393.15,0,0,1,298.23,366.7c-6.13,39.15-20.6,146.05-16,266.63q1.89,50.7,7.94,96.84c-50.38,1.57-82.53,3-90.79,3.38a4.78,4.78,0,0,0-1.1.08c-.31-1.57-.63-3.06-1-4.64A504.13,504.13,0,0,1,189.44,567.07Zm-7.94,79.07a393.24,393.24,0,0,1,3.07-49.36,507.58,507.58,0,0,0,9.9,130.88c.24,1,.39,2,.63,3,.31,1.34.55,2.68.86,4.09,0,.16.08.32.08.47l.08.4.63.55,11.63,9.66.55-.07c.32-.08,18.87-2.75,82.54-5.27.86,0,1.65-.08,2.51-.08,9-.31,18.87-.71,29.72-1l.15,2.51c-10.61.08-20.51.24-29.63.48-.86,0-1.73,0-2.51.07-54.87,1.5-81.44,5.43-81.68,5.43l-10,5.82-.94.55.16.86c0,.16.07.24.07.39,1.58,7.39,3.23,14.55,4.88,21.54.31,1.34.63,2.6.94,3.93A393.3,393.3,0,0,1,181.5,646.14Zm31.21,153.68c-2.05-7.31-4.09-14.86-6-22.8l-1.18-4.95c-1.1-4.64-2.12-9.28-3.14-14.07l-.47-2.12c.39-.08.86-.08,1.41-.16,8.89-1.18,40.17-4.64,89.69-5.35,6.45,42.45,15.64,81.75,27.43,117.52Q343,936,378.17,986.82A396.32,396.32,0,0,1,212.71,799.82ZM766.8,989.65a392.39,392.39,0,0,1-383.6,0c-48.81-68.94-74.67-155.8-87.56-239.35,3.93,0,8-.08,12.18-.08L318.43,821H831.72l10.62-70.74c4.16,0,8.25,0,12.18.08C841.47,833.77,815.69,920.71,766.8,989.65ZM943.27,777c-1.89,7.86-3.93,15.49-6,22.8a395.79,395.79,0,0,1-165.38,187c23.42-33.8,42.68-73.58,57.69-118.93,11.79-35.77,21-75.07,27.44-117.52,49.52.63,80.8,4.17,89.68,5.35a11,11,0,0,0,1.42.16l-.47,2.12c-1,4.79-2.12,9.51-3.15,14.07-.47,1.65-.86,3.3-1.25,4.95Zm2.43,0c1.73-7,3.3-14.15,4.88-21.54,0-.15.07-.23.07-.39l.16-.86-.94-.55L940.28,748l-.39-.16c-.32-.08-26.81-3.93-81.75-5.43-.79,0-1.73,0-2.52-.07-9.12-.24-19-.4-29.63-.48l.15-2.51c10.85.31,20.76.63,29.79,1,.87,0,1.66.08,2.52.08,63.67,2.52,82.22,5.19,82.54,5.27l.55.07,11.63-9.66.63-.55.08-.4c0-.15.08-.31.08-.47.31-1.33.62-2.75.86-4.09.24-1,.39-2,.63-3a507.58,507.58,0,0,0,9.9-130.88,395.27,395.27,0,0,1-20.67,184.09c.39-1.25.71-2.59,1-3.85Z" transform="translate(-12.53 -61.73)"/><path class="cls-20" d="M632.22,736.46h-2.35c-17.38-.08-35.61-.08-54.87-.08s-37.5,0-54.87.08h-2.36c-83.87.39-146,1.49-191.64,2.83l.24,2.52,8.73,70.58h480l8.73-70.58.31-2.52c-45.75-1.34-107.93-2.51-191.88-2.83Z" transform="translate(-12.53 -61.73)"/><path class="cls-21" d="M632.22,736.46h-2.35c-17.38-.08-35.61-.08-54.87-.08s-37.5,0-54.87.08h-2.36c-83.87.39-146,1.49-191.64,2.83l.24,2.52,8.73,70.58h480l8.73-70.58.31-2.52c-45.75-1.34-107.93-2.51-191.88-2.83Z" transform="translate(-12.53 -61.73)"/><g id="layer1"><path id="path1309" class="cls-22" d="M559.82,63c-68.17,4.54-141.47,26.14-194.91,50.61S172.52,198.88,139.27,220.32c-32.24,20.78-65.91,23.5-86.37,53-7.89,11.38,26.3,57.42,33.7,63,19.2,14.43,57.47,3.46,73.49,5.58,29.6,3.92,59.82,6.87,88.66,17A71.51,71.51,0,0,1,291,453.52c-3,7.24-6.56,15.53-10.91,25.05-12.94,28.3-43.65,102.28-28,120.74S290.39,563,307,575.43c0,0,0,.05,0,.06a.14.14,0,0,0,0,.06l0,.06.06,0a1,1,0,0,0,.3,0s.08,0,.11.05l.34.27.16-.27c9.15-.46,82.91-16.31,142.39,8.08,33.53,13.75,93,6.21,127,2.89,53.9-5.28,128-4.91,173.37,3.42,33.42,6.14,67.32-6.42,99.8-2.12,19.16,2.53,13.82-61.3,14.71-67.75,4.31-31,.79-90.57-10.6-136.38S795.14,283.05,766.93,234s-66.7-112.86-98.12-136.47S633.81,58.12,559.82,63Z" transform="translate(-12.53 -61.73)"/><path id="path5882" class="cls-23" d="M374.09,154.62c-39,1.1-93.85,108.41-143.74,118.91-32.62,6.87-118.38,10-111.79,14.81,17.12,12.5,51,3.31,65.21,5.22,46.16,6.22,94,9.86,134.12,49-10.21,6.52,5.14.39-26.91,69.12-11.3,24.23-38.11,87.62-24.14,103.58s33.79-31,48.59-20.2c0,0,0,0,0,.05s0,0,0,.05,0,0,0,0l.05,0a.69.69,0,0,0,.26.05l.1,0,.3.24.15-.23c8.1-.35,73.43-13.53,126.33,7.77,29.82,12,82.49,5.88,112.61,3.22,47.78-4.22,113.5-3.47,153.78,4,29.68,5.48,59.67-5.12,88.5-1.24,17,2.29-106.1-12.26-51.09-35.87,24.41-10.48-220.62-12.47-291.19-129.51C385.3,227.78,414,153.5,374.09,154.62Z" transform="translate(-12.53 -61.73)"/><path id="path5878" class="cls-24" d="M126.88,229.18c6,6,40.66,74.29,47,71.28,2-6.37-2.94-10-6.6-11.54,6.42-5.47,8.76-12.07,0-14.45-9.48-3.72-20-7.11-7.28-15.56,6.08-5,3-16.53,1.09-22.49-7-5.84-11.38-14.73-13.55-20.6" transform="translate(-12.53 -61.73)"/><path id="path5003" class="cls-25" d="M733.07,483.66c-13.5-8.1-30.54-17.74-43.57-19.55-7.32-9.24-16-1.42-24.11-.52,1.62-14.62-23.69,1.54-33-.23-7.39,2.46.23-11.74-12.8-8.38-15-1.59-24.36-2.42-36.26.1-5.79,15.11-31.2,19.15-31.27,1.29-14,3-40.16,9-36.73-8.73-23.86,11.83-27.44,26.15-49.13,29.8,4.58-13.48-39.36-30.11-48.49-16.84-13.49,2.51,6.27-17.67-13.05-14.93-19.11-10-15.56,33.29-53.57,8.2-22.9-5.4-16.88,30.56-34.92,41.47-7,13.88-20.6-9.5-27.94-9.83-3.05,23.61,3.54,16.73-4.9,31.51-7.15,19.21-13.35,28.3,7.65,36.84,9-8.14.76-5.59-1.23,12.38,13.35-1.12,34.16-18.77,28.1,2.47,11.19-11.3,39.64-12.62,42.13-26.71,13.42,4.2,25.71,22.62,41,6.35,14.39-11.39,32.38-14.4,30.41-3.74,11.45,16,13.41,13.65,28.76,13.26-.34-17.77,34.59,5.78,17.88-15.22,9.62-6.4,32.21-6.7,44.16-1.39,7.81,18.35,41.26,26.5,50.72,6.7,4.42-16.18,31.16-16.62,38.44-3.34,19.6-11.24,41.58,15.29,58.16,7-9.5-19.32,23.79-24,27-10,12.64-3.82,27.7-23.7,37-5.41,15.29-1.78,34.12-4.74,47.24-7.16,6.08,16.86,32.78,6.18,26.23-14.06-2.91-14.1,16.88,10.06,13.76-7.71-3.76-19.21-9.1-45.92-21.89-47.65-16.34-7.78-28.88,1.77-32.91,18.05,2.2-12-20.48-4.45-32-2.26l-6.13.21-6-6.34" transform="translate(-12.53 -61.73)"/><path id="path1307" class="cls-26" d="M799.56,515.53c-16.37-9.82-32.53-14-48.32-16.19-8.88-11.21-22.19-10.81-32.07-9.72,2-17.73-25.9,10.95-37.24,8.81-9,3,.28-14.24-15.52-10.17-18.23-1.92-36.72-17.2-51.15-14.14-7,18.32-37.82,23.21-37.91,1.56-17,3.64-41.51,25.23-37.35,3.69-29.05-7.2-47.44,19.08-73.74,23.5,5.56-16.35-33.55-23.88-44.62-7.78-16.35,3,2.4-32.62-21-29.3-23.17-12.13-32.41,37-59.76,21.14-27.77-6.55-29.48,22-51.35,35.24-8.51,16.84-16,3.52-24.86,3.11,10.12,23-46.76,7.16-35.9,41.69-8.66,23.3-6.35,41.76,19.11,52.12,10.91-9.87,21-17.72,18.63,4.08,16.18-1.36,41.42-22.77,34.07,3,13.56-13.7,48.06-15.3,51.08-32.39,16.27,5.1,31.17,27.43,49.76,7.71,17.45-13.82,17,.25,14.64,13.16,13.89,19.45,38.48-1.15,57.1-1.62-.42-21.55,41.94,7,21.67-18.46,11.66-7.75,39.06-8.12,53.54-1.68,10.76,15.31,50,32.12,61.5,8.12,5.36-19.62,37.78-20.15,46.61-4,23.76-13.62,50.41,18.53,70.52,8.48-11.52-23.42,28.84-29,32.74-12.09,15.32-4.63,33.59-28.74,44.85-6.56,18.54-2.16,41.37-5.74,57.28-8.68,7.37,20.44,39.74,7.49,31.8-17.05-3.53-17.1,20.47,12.2,16.68-9.35,4.79-22.82,3.33-59.93-26.54-57.77-19.8-9.43-35,2.14-39.91,21.89,2.68-14.59-31.31-16-45.3-13.34l-4.69,1.38-3.51,1.79" transform="translate(-12.53 -61.73)"/><path id="path3126" class="cls-27" d="M326.74,383.87C349,305.38,396.63,277.21,402.42,212c3.43-38.54-36.29-16.83-32.38,20.77" transform="translate(-12.53 -61.73)"/><path id="path3249" class="cls-28" d="M321,495.93c-7,13.89-13.17,2.9-20.51,2.57,8.35,19-38.56,5.9-29.61,34.38-7.14,19.21-5.24,34.44,15.76,43,9-8.15,17.36-14.62,15.37,3.36,13.34-1.12,34.16-18.78,28.1,2.47,11.18-11.3,39.63-12.62,42.13-26.72,13.41,4.21,25.53,20.1,40.86,3.83,14.4-11.4,14.22,2.74,12.25,13.39,11.46,16,31.74-1,47.1-1.34-.34-17.77,17.92.48,17.87-15.23,0-10.28,67.08,6.32,59.3-5.3-23.26-34.75-77.51-.44-83.52-4.55s-13.62-3.89-3.58-6.25-13.71.06-31-10.31-32.59-4.77-37.17,11.47c-12.25-11.55-15.26-1.85-38.33-.19,18-17.54-23.5-10.38-23.5-10.38s11.22-20.95-1.43-20.44c8.83-10.33,2.36-15.38,2.36-15.38S339,485,321,495.93Z" transform="translate(-12.53 -61.73)"/><path id="path2251" class="cls-29" d="M118.83,199.09c-1.89-5.87-10.83-9.19-11.11-13.9,3.11-4.78-5.76-2.65-6.78-5.83-11.12,5.88-25,6.6-34.22,15.92,3.92-.07,5-5.57.1-2.34-8.52,2.28-17.36,7.52-16.4,17.74-.29,5.09-7.38,8.09,0,10.79-2.59,7.72-14.4,5-15.81,12,1.08,8.15-1.68,15.86-9,19.94-7.35,4.54-6.53,13.56-7.72,20.63-4.06,4.07-6.69,8.09-3.5,13.39-.76,8.25,4.86,15,3.21,23.36,1.93,5,7.65,5.84,9.53,11.4,8.3,2.43,6.53,14.34,14.25,17.6,6.45,3.65,14.94,3.74,20.83,6.65a39.21,39.21,0,0,0,15.73,11.7c7,6.77,12.38-5.47,18.1-8.6,1.55-6.39,6.28-6,8.29.09,6.09,6.21,15.06-.55,21-3.89a184.06,184.06,0,0,1,19-11.54c9.6-7.25,14.92-19.32,16.83-31,2.25-7.12-4.44-8.89-8.72-10.62,3.25-5.7,10.09-13.46-.12-16.2-5.62-2.75-17.72-12.09-8.61-17.52,7-5.49,1-16-1.27-22.71-5.07-6-7.23-13.44-9.8-20-7-2.63-13-8.43-13.26-16.52-.71-6.53-.22-1.7-.21,1.4" transform="translate(-12.53 -61.73)"/><path id="path4128" class="cls-30" d="M74.14,276.5c-2.35-4.48,9.63-.17,9.39-4.22,2.67-4.1.59-4.71-.29-7.44-9.54,5.05-4.41-10.44-12.34-2.45,3.37-.05,5.2-11.81,1-9-7.3,2-2.94-12.39-4.16-6.39.93,7-1.43,13.6-7.72,17.11-6.31,3.88-5.6,11.63-6.63,17.7-3.48,3.49-5.74,6.93-3,11.48-.66,7.08,4.17,12.83,2.75,20,1.66,4.27,6.56,5,8.18,9.79,7.12,2.08,5.6,12.3,12.22,15.09,5.54,3.13,12.82,3.21,17.87,5.71a33.81,33.81,0,0,0,13.51,10c6,5.81,10.61-4.69,15.52-7.38,1.33-5.49,5.39-5.11,7.11.08,5.23,5.33,12.93-.47,18-3.34,5.18-3.76-16.43-2.59-10.89-5.69,8.24-6.21-17.27,7.51-15.63-2.53,1.93-6.11-25.75,3.07-18.28-6.85,2.79-4.89,3.3-.86-5.47-3.21-4.82-2.36-17-14.59-9.15-19.24,6-4.72-2.8.36-4.75-5.39-4.35-5.18-1.5-2.24-3.71-7.91-6-2.25-2.78-4.25-3-11.19C70.36,288.48,74.13,273.83,74.14,276.5Z" transform="translate(-12.53 -61.73)"/><path id="path5880" class="cls-31" d="M337.94,348.49s38.88-60.23,50.32-85.08c10.7-23.25,17.49-60.67,10.24-69.32s-21,1-25.07,14.88-5.78,17.24-5.42,45.36c.16,12.75-7,41.44-13.35,54.39S334.24,351.21,337.94,348.49Z" transform="translate(-12.53 -61.73)"/></g></svg>
